<svg xmlns="http://www.w3.org/2000/svg" viewBox="0 0 512 512">
  <defs>
    <linearGradient id="bg" x1="0" y1="0" x2="0.5" y2="1">
      <stop offset="0%" stop-color="#3a3a3a"/>
      <stop offset="100%" stop-color="#1a1a1a"/>
    </linearGradient>
  </defs>
  <circle cx="256" cy="256" r="256" fill="url(#bg)"/>
  <g transform="translate(98.45, 446.66) scale(0.5341, -0.5341)">
    <path d="M249 -10Q131 -10 71.0 32.0Q11 74 11 135Q11 179 43.0 200.5Q75 222 121 222Q121 139 158.0 92.5Q195 46 261 46Q323 46 358.0 78.0Q393 110 393 159Q393 188 383.5 211.0Q374 234 347.0 257.0Q320 280 269 308Q197 348 157.0 397.5Q117 447 117 524Q117 583 147.5 628.0Q178 673 235.0 698.5Q292 724 370 724Q472 724 525.5 692.5Q579 661 579 614Q579 577 552.0 555.0Q525 533 464 533Q464 562 455.5 593.0Q447 624 424.5 645.5Q402 667 361 667Q331 667 304.0 655.0Q277 643 259.0 618.0Q241 593 241 555Q241 520 255.5 496.5Q270 473 299.0 453.0Q328 433 371 409Q446 367 482.5 318.5Q519 270 519 208Q519 104 446.0 47.0Q373 -10 249 -10Z" fill="white"/>
  </g>
</svg>